<?xml version="1.0" encoding="UTF-8" standalone="no"?>
<!-- Created with Inkscape (http://www.inkscape.org/) -->

<svg
   width="512"
   height="512"
   viewBox="0 0 512 512"
   version="1.1"
   id="svg1"
   inkscape:version="1.4.3 (0d15f75042, 2025-12-25)"
   sodipodi:docname="alfred.svg"
   inkscape:export-filename="../../app/res/alfred.svg"
   inkscape:export-xdpi="96"
   inkscape:export-ydpi="96"
   xmlns:inkscape="http://www.inkscape.org/namespaces/inkscape"
   xmlns:sodipodi="http://sodipodi.sourceforge.net/DTD/sodipodi-0.dtd"
   xmlns="http://www.w3.org/2000/svg"
   xmlns:svg="http://www.w3.org/2000/svg">
  <sodipodi:namedview
     id="namedview1"
     pagecolor="#ffffff"
     bordercolor="#111111"
     borderopacity="1"
     inkscape:showpageshadow="0"
     inkscape:pageopacity="0"
     inkscape:pagecheckerboard="1"
     inkscape:deskcolor="#d1d1d1"
     inkscape:document-units="px"
     showgrid="true"
     inkscape:zoom="0.9050967"
     inkscape:cx="141.97378"
     inkscape:cy="236.43882"
     inkscape:window-width="1920"
     inkscape:window-height="1011"
     inkscape:window-x="0"
     inkscape:window-y="0"
     inkscape:window-maximized="1"
     inkscape:current-layer="layer1">
    <inkscape:grid
       id="grid4"
       units="px"
       originx="0"
       originy="0"
       spacingx="1"
       spacingy="1"
       empcolor="#0099e5"
       empopacity="0.30196078"
       color="#0099e5"
       opacity="0.14901961"
       empspacing="5"
       enabled="true"
       visible="true" />
  </sodipodi:namedview>
  <defs
     id="defs1" />
  <g
     inkscape:label="Layer 1"
     inkscape:groupmode="layer"
     id="layer1">
    <ellipse
       style="fill:#f5f5f5;fill-opacity:1;stroke-width:1.76748"
       id="path1"
       ry="211.53172"
       rx="230.7619"
       cy="256.89676"
       cx="255.99443" />
    <ellipse
       style="fill:#000000;fill-opacity:0;stroke:#000000;stroke-width:21.2097;stroke-dasharray:none;stroke-opacity:1"
       id="path3"
       ry="210.96613"
       rx="233.58989"
       cy="255.20001"
       cx="256.56" />
    <path
       style="fill:#000000;fill-opacity:1;stroke:#000000;stroke-width:7.06992;stroke-dasharray:none;stroke-opacity:1"
       id="path5"
       sodipodi:type="arc"
       sodipodi:cx="184.50519"
       sodipodi:cy="190.78288"
       sodipodi:rx="29.403931"
       sodipodi:ry="45.474812"
       sodipodi:start="6.0863135"
       sodipodi:end="6.0862246"
       sodipodi:open="true"
       sodipodi:arc-type="arc"
       d="m 213.34113,181.88789 a 29.403931,45.474812 0 0 1 -23.08382,53.49118 29.403931,45.474812 0 0 1 -34.58781,-35.69922 29.403931,45.474812 0 0 1 23.08228,-53.49276 29.403931,45.474812 0 0 1 34.58884,35.69684" />
    <path
       style="fill:#000000;fill-opacity:1;stroke:#000000;stroke-width:7.06992;stroke-dasharray:none;stroke-opacity:1"
       id="path5-3"
       sodipodi:type="arc"
       sodipodi:cx="317.05475"
       sodipodi:cy="189.37106"
       sodipodi:rx="29.403931"
       sodipodi:ry="45.474812"
       sodipodi:start="6.0863135"
       sodipodi:end="6.0862246"
       sodipodi:open="true"
       sodipodi:arc-type="arc"
       d="m 345.89069,180.47608 a 29.403931,45.474812 0 0 1 -23.08382,53.49117 29.403931,45.474812 0 0 1 -34.58781,-35.69922 29.403931,45.474812 0 0 1 23.08228,-53.49276 29.403931,45.474812 0 0 1 34.58884,35.69684" />
    <path
       style="fill:#000000;fill-opacity:0;stroke:#000000;stroke-width:14.1399;stroke-linecap:round;stroke-dasharray:none;stroke-opacity:1"
       d="m 153.60489,269.00324 c 95.3465,95.40154 196.84437,1.60342 196.84437,1.60342"
       id="path6" />
    <path
       style="fill:#000000;fill-opacity:0;stroke:#000000;stroke-width:14.1399;stroke-linecap:round;stroke-dasharray:none;stroke-opacity:1"
       d="m 361.7941,243.70022 c -34.49837,52.06051 11.27198,53.68656 11.27198,53.68656"
       id="path7"
       inkscape:transform-center-x="0.15744464"
       inkscape:transform-center-y="-0.66940258" />
    <path
       style="fill:#000000;fill-opacity:0;stroke:#000000;stroke-width:14.1399;stroke-linecap:round;stroke-dasharray:none;stroke-opacity:1"
       d="m 132.47931,246.20976 c 56.07092,48.45736 1.35111,53.04115 1.35111,53.04115"
       id="path8" />
    <ellipse
       style="fill:#d77700;fill-opacity:1;stroke:#a14000;stroke-width:7.06992;stroke-dasharray:none;stroke-opacity:1"
       id="path9"
       cx="110.4882"
       cy="330.75375"
       rx="10.746264"
       ry="14.98821"
       transform="rotate(-26.744184)" />
    <path
       style="fill:none;fill-opacity:1;stroke:#000000;stroke-width:13.249;stroke-linecap:round;stroke-dasharray:none;stroke-opacity:1"
       d="m 159.61067,116.83107 c 0.85531,-3.32459 3.08095,-6.00761 5.17537,-8.62564 4.81575,-6.01965 10.18724,-7.4725 17.68255,-8.625627 2.83037,-0.435438 5.7713,-1.125937 8.62563,-1.293839 2.8653,-0.168545 5.76034,0.168545 8.62564,0 1.15702,-0.06803 2.29376,-0.354185 3.45025,-0.431287 4.12097,-0.274726 8.36617,0 12.50717,0"
       id="path11" />
    <path
       style="fill:none;fill-opacity:1;stroke:#000000;stroke-width:13.249;stroke-linecap:round;stroke-dasharray:none;stroke-opacity:1"
       d="m 315.4884,107.40795 c 3.25672,3.57074 1.46264,2.06804 5.32581,4.57457 4.49062,2.91364 9.78799,4.99426 13.6492,8.79015 0.79751,0.78401 1.34158,1.93797 2.07186,2.79243 0.39796,0.46566 1.0994,0.47635 1.38722,0.70261 0.19333,0.15196 0.40745,1.02906 0.58207,1.23337 0.75141,0.87918 2.38173,2.07485 3.35652,2.63859 0.4411,0.25507 2.57208,0.8582 2.72319,0.97698 0.25272,0.19866 0.35385,0.53676 0.53078,0.80515 0.31966,0.25131 0.63934,0.50259 0.959,0.75389 0.55219,0.43407 0.88304,0.11946 0.95901,0.75388"
       id="path12" />
    <path
       style="fill:none;stroke:#ffffff;stroke-width:2.20817;stroke-linecap:round;stroke-dasharray:none;stroke-opacity:1"
       d="m 194.08959,158.24561 c 5.71397,7.01348 9.75879,10.88032 9.75879,20.12752"
       id="path4" />
    <path
       style="fill:none;stroke:#ffffff;stroke-width:2.13273;stroke-linecap:round;stroke-dasharray:none;stroke-opacity:1"
       d="m 326.40544,155.7682 c 1.02376,0.75328 2.2003,1.35854 3.07133,2.25978 2.91902,3.02018 1.06226,1.95392 2.45708,4.51953 0.66031,1.21457 1.79673,2.17506 2.45705,3.38964 1.13626,2.08999 4.13765,9.75321 1.84281,11.86375"
       id="path10" />
  </g>
</svg>
